PathFileType	4	(X/Y/Z)	 s02c0402.trc
DataRate	CameraRate	NumFrames	NumMarkers	Units	OrigDataRate	OrigDataStartFrame	OrigNumFrames
200	200	5	50	mm	200	1751	2000
Frame#	Time	racr			lacr			c7			jug			rlel			rdr			llel			ldr			s2			lic			ric			lasi			rasi			rpsi			lpsi			rgt			lgt			rth1			rth2			rth3			rth4			rlfc			rmfc			rsh1			rsh2			rsh3			rsh4			rlmal			rmmal			rtoe			rmt5			rmt1			lth1			lth2			lth4			lth3			llfc			lmfc			lsh1			lsh2			lsh3			lsh4			llmal			lmmal			lcal			ltoe			lmt5			SBIKE			LBIKE			RBIKE			
		X1	Y1	Z1	X2	Y2	Z2	X3	Y3	Z3	X4	Y4	Z4	X5	Y5	Z5	X6	Y6	Z6	X7	Y7	Z7	X8	Y8	Z8	X9	Y9	Z9	X10	Y10	Z10	X11	Y11	Z11	X12	Y12	Z12	X13	Y13	Z13	X14	Y14	Z14	X15	Y15	Z15	X16	Y16	Z16	X17	Y17	Z17	X18	Y18	Z18	X19	Y19	Z19	X20	Y20	Z20	X21	Y21	Z21	X22	Y22	Z22	X23	Y23	Z23	X24	Y24	Z24	X25	Y25	Z25	X26	Y26	Z26	X27	Y27	Z27	X28	Y28	Z28	X29	Y29	Z29	X30	Y30	Z30	X31	Y31	Z31	X32	Y32	Z32	X33	Y33	Z33	X34	Y34	Z34	X35	Y35	Z35	X36	Y36	Z36	X37	Y37	Z37	X38	Y38	Z38	X39	Y39	Z39	X40	Y40	Z40	X41	Y41	Z41	X42	Y42	Z42	X43	Y43	Z43	X44	Y44	Z44	X45	Y45	Z45	X46	Y46	Z46	X47	Y47	Z47	X48	Y48	Z48	X49	Y49	Z49	X50	Y50	Z50	
1751	8.7550	693.196377	1205.269352	-156.056503	714.334263	1147.287604	-528.889083	732.058325	1245.021794	-362.158495	NaN	NaN	NaN	562.786330	992.689496	-43.818823	686.021960	865.285282	-124.754635	553.212724	967.515029	-673.964896	678.561506	874.075099	-534.842579	152.402609	1148.170809	-360.453712	314.706675	1117.783643	-492.982871	294.084048	1163.167586	-201.344597	354.764351	1085.298061	-456.910100	344.151631	1124.502253	-219.886572	190.431394	1185.868580	-310.665040	202.955409	1178.195448	-398.502869	265.288370	1090.890739	-154.391852	255.434430	1039.496802	-509.356041	345.187859	1043.545289	-141.643317	425.977487	1007.048833	-136.102087	476.161823	948.076011	-99.595736	445.540926	1023.641724	-163.913922	555.234123	825.199154	-115.131648	549.257653	799.831025	-223.603992	481.719183	737.919989	-103.158738	421.852833	673.953126	-124.275322	341.494859	644.953612	-125.480833	435.829279	663.251515	-158.112756	237.300432	588.433459	-137.142486	267.782514	595.553065	-215.637559	283.722834	363.619304	-186.313869	222.087305	455.063101	-128.818135	247.672721	437.636170	-234.859070	341.096512	924.814878	-522.717963	393.414611	855.436472	-514.956383	424.457897	869.295079	-501.540524	402.922350	767.506896	-511.572301	438.909905	676.503943	-487.005974	436.384510	648.266400	-388.403275	412.061110	574.158170	-508.236110	412.489794	489.421295	-491.589472	366.811921	410.856706	-490.813399	430.010168	488.574997	-454.563295	323.500173	315.197492	-476.523046	338.718147	310.599582	-399.713053	249.678978	283.832947	-437.030471	521.012291	181.457650	-437.369303	413.849568	195.897545	-499.025122	-162.184574	859.456110	-312.658564	37.205984	86.412438	-514.255211	33.838942	83.230807	-114.179618	
1752	8.7600	692.657694	1206.444947	-154.455209	715.190223	1148.235542	-527.473196	732.083315	1245.957971	-360.168210	NaN	NaN	NaN	563.165969	992.715055	-42.284950	685.621616	865.098890	-125.210387	554.244344	969.072421	-673.968718	678.840363	874.044007	-535.307432	153.409996	1146.588638	-362.693124	315.914379	1115.803260	-492.844703	293.603006	1162.220152	-201.649438	355.664302	1083.039806	-456.275539	344.213732	1124.076978	-219.839787	191.057482	1184.078780	-312.166422	203.616874	1176.602308	-399.664196	265.476380	1090.886584	-154.595652	255.700917	1037.069044	-509.501309	346.178694	1045.459459	-141.690380	427.920163	1011.060020	-136.758197	480.969124	953.673878	-101.585456	446.696465	1027.811864	-165.176953	562.410152	832.116891	-116.537441	555.832511	807.767526	-226.657719	489.579263	744.466251	-104.742728	429.434242	680.788112	-125.822539	349.029432	651.983600	-126.661233	443.133153	670.180584	-159.860374	244.294837	595.884358	-137.855185	273.640200	602.827031	-217.139044	293.031115	371.565493	-186.428648	230.834763	462.535649	-129.154212	255.720375	444.934479	-235.329750	338.770677	920.603266	-523.066229	389.422824	850.086757	-515.234167	420.796346	863.212666	-501.745570	396.728542	761.917128	-511.855660	430.733562	670.556535	-487.622341	427.642261	642.473726	-389.012146	403.554750	568.767483	-508.972633	404.414744	484.073351	-492.491916	358.939981	405.313011	-491.360214	422.030111	483.253198	-455.305066	316.647251	309.336360	-476.866762	331.795897	304.773322	-400.022226	242.819361	279.042485	-437.139617	512.813991	173.165730	-437.315446	405.844548	188.898331	-499.043404	-162.183773	860.213103	-310.201202	37.225721	86.379385	-514.271364	33.860646	83.220190	-114.168382	
1753	8.7650	692.048990	1207.404660	-152.835510	716.054437	1149.214434	-525.942981	732.131767	1246.752537	-358.139864	NaN	NaN	NaN	562.709194	992.956031	-40.076230	685.593399	865.045630	-125.292237	555.312936	970.670724	-673.958379	679.175440	873.989148	-535.893962	153.471492	1146.462614	-361.881002	317.133142	1113.778942	-492.764790	293.093442	1161.340684	-201.974582	356.488006	1081.028897	-455.852394	344.335216	1123.558947	-219.754373	191.728667	1182.310006	-313.641157	203.886148	1174.952196	-401.360869	265.626325	1090.732063	-154.753120	255.733035	1034.941076	-509.189041	346.886517	1047.203392	-141.772510	429.470773	1014.928622	-137.541831	484.808958	958.711717	-103.771832	447.589061	1031.880416	-166.226627	569.062682	838.784909	-117.893016	562.480654	814.711245	-228.425641	497.226267	751.035325	-106.429593	436.924605	687.639290	-127.347254	356.116440	658.756628	-127.743888	450.097179	676.963201	-161.774186	251.364325	602.857646	-138.666336	281.173967	610.165208	-217.458761	302.817631	379.131956	-186.657752	239.673595	469.514562	-129.596625	264.760343	451.475749	-236.156763	336.146026	917.020029	-523.558360	385.107787	845.131489	-516.276810	416.878171	857.816485	-502.310591	390.515751	756.955310	-512.186175	422.675918	665.308871	-488.202523	419.169715	637.615570	-389.710244	395.075408	563.914714	-509.896193	396.306275	479.338608	-493.332134	351.007014	400.432750	-491.967775	414.086185	478.475521	-456.298868	309.546667	304.149090	-477.229564	324.639276	299.558516	-400.348413	235.683802	275.006279	-437.310783	504.126482	165.226521	-437.352415	397.426933	182.496441	-499.025689	-162.266850	860.174730	-310.259839	37.222642	86.362914	-514.271322	33.358272	83.660711	-114.242692	
1754	8.7700	691.412160	1208.274318	-151.008446	716.773754	1150.207140	-524.766084	732.181932	1247.349634	-356.019825	NaN	NaN	NaN	563.158628	992.884718	-38.759927	685.502619	865.095244	-125.157065	556.440611	972.267890	-673.924769	679.459098	873.890085	-536.459878	154.025887	1145.367316	-362.715928	318.329432	1111.911042	-492.553377	292.672082	1160.609731	-202.178953	357.274494	1079.081277	-455.190767	344.536998	1123.221164	-219.694882	192.343059	1180.539769	-315.042310	204.840043	1173.374076	-401.603995	265.827077	1090.425043	-154.842918	255.677999	1033.091622	-509.135591	347.526519	1048.867832	-142.101785	430.782779	1018.565356	-138.588050	487.813198	963.917954	-105.089121	448.240247	1035.708766	-167.709990	575.679319	846.049714	-120.050744	568.830195	821.665654	-230.365141	504.509458	757.676440	-108.187648	444.093041	694.207488	-129.070702	363.408730	665.182959	-128.929686	457.447836	683.712445	-163.286048	258.556647	609.262183	-139.466527	288.689782	616.436867	-217.663723	313.484514	387.040863	-185.835482	248.833667	475.869054	-130.029093	273.509980	457.881588	-235.790647	333.363767	914.040717	-524.023097	380.854195	841.251200	-516.480733	412.841797	853.043800	-502.978206	384.063602	752.614687	-512.992813	414.665442	660.850649	-488.957166	410.765151	633.114580	-391.240010	386.781766	559.710795	-510.685114	388.259312	475.053319	-494.189387	343.070146	396.125098	-492.585203	406.219782	474.271649	-457.164736	302.233871	299.543521	-477.613956	317.285140	294.940455	-400.694088	228.315593	271.646705	-437.473612	495.170471	157.842291	-437.288143	388.700725	176.606685	-499.001503	-162.297133	860.175654	-310.292952	37.211465	86.337424	-514.289169	33.384787	83.705664	-114.293091	
1755	8.7750	690.785791	1208.950385	-149.237455	717.699377	1151.100870	-523.025377	732.249777	1247.788827	-353.901356	NaN	NaN	NaN	563.495474	992.628957	-37.554692	685.409856	865.168795	-125.007680	557.608228	973.875787	-673.872916	679.804000	873.798374	-536.917089	154.946643	1143.742825	-364.625894	319.370045	1110.292557	-492.334950	292.269922	1159.774383	-202.383757	357.744179	1076.903092	-454.490557	344.815323	1123.033465	-219.752642	193.010220	1178.947978	-316.359501	205.468424	1172.039346	-402.797136	266.099402	1090.153037	-154.908547	255.510168	1031.546768	-509.102125	348.041257	1050.491072	-142.825520	432.011271	1022.116107	-139.755839	490.382233	969.026212	-106.568082	448.874768	1039.537481	-169.308626	580.553759	852.469918	-121.256865	574.790510	828.541912	-232.521902	511.555151	764.137276	-110.016026	451.289315	700.670429	-130.665775	370.659589	671.442799	-130.184938	464.144054	690.106025	-165.228573	265.875591	614.942328	-140.221311	295.097283	622.489840	-218.866142	323.802168	393.438901	-186.516389	258.189685	481.652646	-130.342750	282.768267	463.885804	-235.803988	330.550605	911.564449	-524.396766	376.499369	837.912388	-517.089778	408.786411	848.890806	-503.681786	377.886407	749.096758	-513.678874	406.816222	656.993358	-489.753971	403.116537	629.343613	-392.029804	378.689691	556.019677	-511.460882	380.236944	471.244173	-494.930007	335.128637	392.285976	-493.161551	398.360828	470.589151	-458.075059	294.832207	295.573677	-477.984296	309.801834	291.015713	-400.932954	220.769181	268.921954	-437.586461	485.820842	151.047080	-437.375669	379.674506	171.396453	-499.060373	-162.327226	860.124170	-310.382589	37.197296	86.291375	-514.318885	33.837545	83.212907	-114.190989	
